<svg width="569" height="144" viewBox="0 0 569 144" fill="none" xmlns="http://www.w3.org/2000/svg">
<path d="M26.9028 122.216C39.7798 122.216 50.3232 111.778 50.4522 98.9017C50.5811 86.0253 40.2467 75.5869 27.3697 75.5869C14.4927 75.5869 3.94927 86.0253 3.82034 98.9017C3.69142 111.778 14.0258 122.216 26.9028 122.216Z" fill="#FCFCFD"/>
<path d="M95.4591 122.233L61.5589 43.4714C61.1099 42.5529 61.1099 41.864 61.1099 41.1752C61.1099 40.4863 61.5589 39.5678 61.7834 38.8789C62.2324 38.19 62.9059 37.7308 63.3549 37.2715C64.0284 36.8123 64.702 36.5826 65.6 36.5826C66.7225 36.5826 67.6205 37.0419 68.294 37.2715C68.9675 37.5012 69.6411 38.19 70.0901 39.3382L105.8 122.2H125.557L86.7034 31.9901C83.1114 23.4939 74.8047 18.2125 65.8245 18.2125C49.4356 18.2125 38.4349 35.4345 44.9455 50.8195L75.4782 122.233H95.4591Z" fill="#FCFCFD"/>
<path d="M167.565 114.06C163.57 114.06 160.024 113.394 156.926 112.063C153.856 110.704 151.424 108.666 149.63 105.948C147.864 103.204 146.981 99.7664 146.981 95.636C146.981 92.1578 147.592 89.223 148.815 86.8318C150.038 84.4405 151.722 82.4976 153.869 81.003C156.016 79.5085 158.489 78.3807 161.288 77.6199C164.086 76.8318 167.076 76.302 170.255 76.0302C173.815 75.7041 176.681 75.3645 178.855 75.0112C181.029 74.6308 182.605 74.1009 183.584 73.4216C184.589 72.715 185.092 71.7232 185.092 70.446V70.2422C185.092 68.1499 184.372 66.533 182.931 65.3917C181.491 64.2504 179.548 63.6798 177.103 63.6798C174.467 63.6798 172.347 64.2504 170.744 65.3917C169.141 66.533 168.122 68.1091 167.687 70.12L149.304 69.4678C149.847 65.6635 151.247 62.2668 153.502 59.2777C155.785 56.2614 158.91 53.8973 162.877 52.1853C166.872 50.4462 171.668 49.5767 177.266 49.5767C181.26 49.5767 184.942 50.0522 188.312 51.0033C191.681 51.9272 194.616 53.2859 197.116 55.0793C199.616 56.8456 201.545 59.0195 202.904 61.601C204.29 64.1825 204.983 67.1308 204.983 70.446V113H186.233V104.277H185.744C184.63 106.397 183.203 108.19 181.464 109.658C179.752 111.125 177.728 112.226 175.391 112.959C173.081 113.693 170.472 114.06 167.565 114.06ZM173.72 101.016C175.866 101.016 177.796 100.582 179.508 99.7121C181.247 98.8425 182.633 97.6469 183.665 96.1252C184.698 94.5763 185.214 92.7828 185.214 90.7448V84.7937C184.643 85.0926 183.95 85.3644 183.135 85.6089C182.347 85.8535 181.478 86.0845 180.527 86.3019C179.575 86.5193 178.597 86.7095 177.592 86.8725C176.586 87.0356 175.622 87.185 174.698 87.3209C172.823 87.6198 171.22 88.0817 169.888 88.7067C168.584 89.3317 167.578 90.1469 166.872 91.1524C166.192 92.1306 165.853 93.2991 165.853 94.6578C165.853 96.723 166.586 98.299 168.054 99.386C169.548 100.473 171.437 101.016 173.72 101.016ZM246.396 114.182C239.792 114.182 234.127 112.823 229.398 110.106C224.697 107.389 221.083 103.611 218.556 98.7746C216.029 93.9105 214.765 88.2855 214.765 81.8997C214.765 75.4868 216.029 69.8618 218.556 65.0249C221.11 60.1608 224.738 56.3701 229.439 53.6527C234.167 50.9353 239.806 49.5767 246.355 49.5767C252.143 49.5767 257.183 50.6228 261.477 52.7152C265.798 54.8076 269.167 57.7695 271.586 61.601C274.031 65.4053 275.322 69.8754 275.458 75.0112H256.83C256.45 71.8047 255.363 69.2912 253.569 67.4705C251.803 65.6499 249.493 64.7396 246.64 64.7396C244.33 64.7396 242.306 65.3917 240.567 66.6961C238.828 67.9732 237.469 69.8754 236.491 72.4025C235.54 74.9025 235.064 78.0003 235.064 81.6959C235.064 85.3916 235.54 88.5165 236.491 91.0709C237.469 93.598 238.828 95.5137 240.567 96.8181C242.306 98.0952 244.33 98.7338 246.64 98.7338C248.488 98.7338 250.118 98.3398 251.531 97.5518C252.972 96.7637 254.154 95.6089 255.078 94.0871C256.001 92.5382 256.586 90.6632 256.83 88.4622H275.458C275.268 93.6252 273.977 98.136 271.586 101.995C269.221 105.853 265.893 108.856 261.599 111.003C257.333 113.122 252.265 114.182 246.396 114.182ZM314.924 114.182C308.375 114.182 302.723 112.891 297.968 110.31C293.24 107.701 289.598 103.992 287.044 99.1822C284.517 94.3453 283.253 88.598 283.253 81.9405C283.253 75.4732 284.53 69.821 287.085 64.9841C289.639 60.12 293.24 56.3429 297.886 53.6527C302.533 50.9353 308.008 49.5767 314.313 49.5767C318.769 49.5767 322.845 50.2696 326.541 51.6554C330.236 53.0413 333.429 55.0929 336.12 57.8103C338.81 60.5276 340.902 63.8836 342.397 67.8781C343.891 71.8455 344.639 76.3971 344.639 81.5329V86.5057H290.223V74.9297H326.092C326.065 72.8101 325.563 70.9216 324.584 69.264C323.606 67.6064 322.261 66.3156 320.549 65.3917C318.864 64.4407 316.921 63.9651 314.72 63.9651C312.492 63.9651 310.495 64.4678 308.729 65.4733C306.962 66.4515 305.563 67.7966 304.53 69.5085C303.498 71.1933 302.954 73.1091 302.9 75.2558V87.0356C302.9 89.5899 303.402 91.8317 304.408 93.761C305.413 95.6632 306.84 97.1442 308.688 98.2039C310.536 99.2637 312.737 99.7936 315.291 99.7936C317.057 99.7936 318.66 99.549 320.101 99.0599C321.541 98.5708 322.777 97.8507 323.81 96.8996C324.843 95.9485 325.617 94.7801 326.133 93.3942L344.435 93.9241C343.674 98.0273 342.003 101.601 339.421 104.644C336.867 107.66 333.511 110.011 329.353 111.696C325.196 113.353 320.386 114.182 314.924 114.182ZM374.75 77.2938V113H354.818V29.5225H374.098V61.8863H374.791C376.204 58.0277 378.514 55.0114 381.72 52.8375C384.954 50.6636 388.908 49.5767 393.582 49.5767C397.984 49.5767 401.815 50.5549 405.076 52.5114C408.337 54.4407 410.864 57.1717 412.658 60.7043C414.478 64.2369 415.375 68.3673 415.348 73.0955V113H395.416V77.0085C395.443 73.5302 394.574 70.8129 392.807 68.8564C391.041 66.8999 388.555 65.9216 385.348 65.9216C383.256 65.9216 381.408 66.3836 379.805 67.3075C378.229 68.2042 376.992 69.495 376.095 71.1797C375.226 72.8645 374.778 74.9025 374.75 77.2938ZM468.184 85.9758V50.3919H488.075V113H469.08V101.342H468.428C467.042 105.174 464.678 108.217 461.336 110.473C458.021 112.701 454.013 113.815 449.311 113.815C445.045 113.815 441.295 112.837 438.062 110.88C434.828 108.924 432.314 106.193 430.521 102.688C428.727 99.155 427.817 95.0246 427.79 90.2964V50.3919H447.722V86.3834C447.749 89.7801 448.646 92.4567 450.412 94.4132C452.178 96.3697 454.583 97.348 457.627 97.348C459.61 97.348 461.39 96.9132 462.966 96.0436C464.569 95.1469 465.833 93.8562 466.757 92.1714C467.708 90.4594 468.184 88.3942 468.184 85.9758ZM500.761 113V29.5225H520.693V61.1119H521.101C521.916 59.2097 523.071 57.3755 524.566 55.6092C526.087 53.8429 528.017 52.4027 530.354 51.2886C532.718 50.1473 535.544 49.5767 538.832 49.5767C543.18 49.5767 547.242 50.718 551.019 53.0005C554.823 55.2831 557.894 58.8021 560.231 63.5575C562.568 68.3129 563.736 74.3726 563.736 81.7367C563.736 88.829 562.609 94.7665 560.353 99.549C558.125 104.332 555.109 107.919 551.304 110.31C547.527 112.701 543.329 113.897 538.709 113.897C535.557 113.897 532.826 113.38 530.517 112.348C528.207 111.315 526.264 109.957 524.688 108.272C523.139 106.587 521.943 104.78 521.101 102.851H520.49V113H500.761ZM520.286 81.6959C520.286 85.0655 520.734 88.0002 521.631 90.5002C522.555 93.0002 523.873 94.9431 525.585 96.329C527.324 97.6876 529.402 98.367 531.821 98.367C534.267 98.367 536.345 97.6876 538.057 96.329C539.769 94.9431 541.06 93.0002 541.93 90.5002C542.826 88.0002 543.275 85.0655 543.275 81.6959C543.275 78.3264 542.826 75.4052 541.93 72.9324C541.06 70.4596 539.769 68.5439 538.057 67.1852C536.373 65.8265 534.294 65.1472 531.821 65.1472C529.375 65.1472 527.297 65.8129 525.585 67.1444C523.873 68.4759 522.555 70.3781 521.631 72.8509C520.734 75.3237 520.286 78.2721 520.286 81.6959Z" fill="white"/>
</svg>
