<svg width="502" height="80" viewBox="0 0 502 80" fill="none" xmlns="http://www.w3.org/2000/svg">
<path d="M177.056 23.6V77.2H162.256L161.156 70.8C156.556 75.8 150.656 78.3 143.356 78.3C138.356 78.3 133.956 77.1 130.056 74.8C126.156 72.4 123.156 69.2 120.956 64.9C118.756 60.7 117.656 55.8 117.656 50.4C117.656 45 118.756 40.1 120.956 35.9C123.156 31.7 126.156 28.4 130.056 26C133.956 23.6 138.356 22.5 143.356 22.5C146.956 22.5 150.256 23.1 153.356 24.4C156.356 25.7 158.956 27.5 161.156 29.9L162.256 23.6H177.056ZM156.656 60.3C159.056 57.8 160.256 54.5 160.256 50.5C160.256 46.4 159.056 43.2 156.656 40.7C154.256 38.2 151.156 37 147.456 37C143.656 37 140.656 38.3 138.256 40.8C135.856 43.3 134.756 46.6 134.756 50.6C134.756 54.6 135.956 57.8 138.256 60.4C140.556 62.9 143.656 64.2 147.456 64.2C151.256 64 154.256 62.8 156.656 60.3Z" fill="#F2F2F2"/>
<path d="M200.756 75.0004C196.256 72.7004 192.856 69.5004 190.456 65.3004C188.056 61.1004 186.856 56.2004 186.856 50.5004C186.856 44.9004 188.056 40.0004 190.556 35.8004C193.056 31.6004 196.456 28.3004 200.856 25.9004C205.256 23.5004 210.356 22.4004 216.156 22.4004C220.156 22.4004 223.956 23.1004 227.556 24.5004C231.156 25.9004 234.356 28.0004 237.256 30.7004L227.856 41.0004C224.856 38.2004 221.256 36.8004 217.156 36.8004C213.256 36.8004 210.056 38.0004 207.656 40.5004C205.156 43.0004 203.956 46.3004 203.956 50.3004C203.956 54.4004 205.156 57.6004 207.556 60.1004C209.956 62.6004 213.156 63.8004 217.156 63.8004C221.556 63.8004 225.356 62.2004 228.456 59.1004L238.156 69.3004C232.156 75.2004 224.956 78.2004 216.656 78.2004C210.456 78.4004 205.256 77.3004 200.756 75.0004Z" fill="#F2F2F2"/>
<path d="M285.756 25.7004C290.056 27.9004 293.256 31.0004 295.556 35.0004C297.856 39.0004 298.956 43.7004 298.956 49.1004C298.956 50.8004 298.756 53.0004 298.456 55.5004H259.056C259.556 58.3004 261.056 60.5004 263.456 62.2004C265.956 63.9004 269.056 64.8004 272.856 64.8004C275.556 64.8004 278.156 64.4004 280.656 63.6004C283.156 62.8004 285.356 61.7004 287.156 60.2004L296.056 69.7004C293.056 72.5004 289.456 74.7004 285.256 76.2004C281.056 77.7004 276.656 78.5004 271.956 78.5004C265.756 78.5004 260.356 77.4004 255.756 75.1004C251.156 72.8004 247.656 69.6004 245.256 65.4004C242.756 61.2004 241.556 56.2004 241.556 50.5004C241.556 45.0004 242.756 40.1004 245.156 35.8004C247.556 31.5004 250.956 28.2004 255.256 25.9004C259.556 23.5004 264.656 22.4004 270.356 22.4004C276.356 22.4004 281.456 23.5004 285.756 25.7004ZM262.756 38.5004C260.656 40.2004 259.456 42.7004 259.156 45.8004H282.856C282.656 42.7004 281.456 40.3004 279.456 38.5004C277.356 36.8004 274.656 35.9004 271.156 35.9004C267.656 35.9004 264.856 36.8004 262.756 38.5004Z" fill="#F2F2F2"/>
<path d="M357.456 29.1008C361.356 33.5008 363.256 39.5008 363.256 47.0008V77.2008H346.256V47.9008C346.256 44.4008 345.356 41.7008 343.656 39.8008C341.956 37.8008 339.556 36.9008 336.556 36.9008C333.256 36.9008 330.556 38.0008 328.456 40.3008C326.356 42.5008 325.356 45.5008 325.356 49.1008V77.3008H308.356V1.30078H325.356V29.5008C329.456 24.8008 334.956 22.4008 341.756 22.4008C348.356 22.4008 353.656 24.6008 357.456 29.1008Z" fill="#F2F2F2"/>
<path d="M429.256 23.5996V77.1996H414.456L413.356 70.9996C411.356 73.3996 408.856 75.1996 405.956 76.4996C403.056 77.7996 399.856 78.3996 396.356 78.3996C389.756 78.3996 384.556 76.1996 380.656 71.8996C376.756 67.5996 374.756 61.5996 374.756 53.8996V23.5996H391.756V52.8996C391.756 56.3996 392.556 59.0996 394.356 60.9996C396.056 62.9996 398.356 63.8996 401.356 63.8996C404.656 63.8996 407.256 62.7996 409.256 60.4996C411.256 58.1996 412.256 55.2996 412.256 51.6996V23.5996H429.256Z" fill="#F2F2F2"/>
<path d="M489.056 26.1008C492.956 28.5008 495.956 31.7008 498.156 36.0008C500.356 40.2008 501.456 45.1008 501.456 50.5008C501.456 55.9008 500.356 60.8008 498.156 65.0008C495.956 69.2008 492.956 72.5008 489.056 74.9008C485.156 77.3008 480.656 78.4008 475.756 78.4008C468.456 78.4008 462.556 75.9008 457.956 70.9008L456.856 77.3008H442.056V1.30078H459.056V28.8008C463.556 24.7008 469.056 22.6008 475.656 22.6008C480.756 22.5008 485.156 23.7008 489.056 26.1008ZM480.956 60.3008C483.356 57.8008 484.556 54.5008 484.556 50.5008C484.556 46.4008 483.356 43.2008 480.956 40.7008C478.556 38.2008 475.456 37.0008 471.756 37.0008C467.956 37.0008 464.956 38.3008 462.556 40.8008C460.156 43.3008 459.056 46.6008 459.056 50.6008C459.056 54.6008 460.256 57.8008 462.556 60.4008C464.856 62.9008 467.956 64.2008 471.756 64.2008C475.456 64.0008 478.556 62.8008 480.956 60.3008Z" fill="#F2F2F2"/>
<path d="M20.3013 78.446C29.8189 77.5988 36.8476 69.1964 36.0004 59.6788C35.1532 50.1612 26.7508 43.1324 17.2332 43.9796C7.71555 44.8269 0.686809 53.2292 1.53403 62.7469C2.38126 72.2645 10.7836 79.2932 20.3013 78.446Z" fill="#1E7CF0"/>
<path d="M71.8562 77.1L46.1562 18.6C45.8562 18 45.7562 17.4 45.8562 16.8C45.9562 16.2 46.1562 15.7 46.4562 15.1C46.7562 14.6 47.2562 14.2 47.7562 13.9C48.2562 13.6 48.8562 13.5 49.5562 13.5C50.4562 13.5 51.1562 13.8 51.5562 14.1C51.9562 14.4 52.5562 14.9 52.8562 15.7L79.9562 77.2H94.8562L65.2562 10.2C62.4562 4.00001 56.2562 0 49.4562 0C36.9562 0 28.5562 12.8 33.6562 24.3L56.9562 77.3L71.8562 77.1Z" fill="#1E7CF0"/>
</svg>
